:FULLY-SPECIFIED
:FORCE-ALL-JOINTS-BE-3DOF
:DEGREES
1
root 7.46593 15.9937 -36.7321 7.11356 1.31487 -3.66776
lfemur -40.6897 6.42258 -16.3516
ltibia 43.9106 0 0
lfoot -14.6186 8.34667 0
ltoes -11.8487 0 0
rfemur -9.89801 4.72659 30.1099
rtibia 24.1198 0 0
rfoot 0 0 0
rtoes 0 0 0
lowerback -4.29912 0.189404 0.939401
upperback -1.51886 0.185188 2.55702
thorax 0.845091 0.0960327 2.10705
lowerneck -18.6579 -5.17414 -13.3376
upperneck 13.6797 -6.63107 16.9236
head 8.38994 -2.28192 7.17028
lclavicle 6.33626e-15 1.59028e-14 0
lhumerus -35.9267 -2.97855 86.2544
lradius 27.4056 0 0
lwrist 7.30557 0 0
lhand -13.3003 -23.0211 0
lfingers 7.12502 0 0
lthumb 12.8038 6.56624 0
rclavicle 6.33626e-15 1.59028e-14 0
rhumerus -38.7688 17.4551 -84.1031
rradius 56.1989 0 0
rwrist -28.5696 0 0
rhand -33.2015 -25.7513 0
rfingers 7.12502 0 0
rthumb -6.4087 -55.6344 0
2
root 7.48607 15.9858 -36.5835 7.11903 1.18077 -3.70637
lfemur -40.7394 6.45774 -16.3025
ltibia 43.8066 -0 0
lfoot -14.4113 8.32941 -0.00227665
ltoes -11.7446 0 0
rfemur -9.44159 4.7346 30.0753
rtibia 23.7867 -0 0
rfoot -0.0286567 0.0163914 -0.000820065
rtoes -0.379709 0 0
lowerback -4.35759 0.202955 0.963127
upperback -1.51499 0.199758 2.57683
thorax 0.881286 0.103538 2.11667
lowerneck -18.6906 -5.16821 -13.3266
upperneck 13.707 -6.61975 16.8952
head 8.4014 -2.27697 7.16072
lclavicle -3.14018e-14 -4.8901e-14 0
lhumerus -36.0371 -3.03455 86.3241
lradius 27.3491 -0 0
lwrist 7.20655 0 0
lhand -13.0341 -22.9469 0.0129079
lfingers 7.12502 -0 0
lthumb 13.0593 6.609 0.00712392
rclavicle -3.14018e-14 -4.8901e-14 0
rhumerus -38.8577 17.4953 -84.229
rradius 56.1875 -0 0
rwrist -28.5481 0 0
rhand -33.1709 -25.8695 -0.00239675
rfingers 7.12502 -0 0
rthumb -6.37911 -55.7533 -0.00232846
3
root 7.50621 15.9779 -36.4349 7.12681 1.02861 -3.75449
lfemur -40.81 6.50192 -16.2402
ltibia 43.6933 -0 0
lfoot -14.1688 8.30877 -0.00485199
ltoes -11.6285 0 0
rfemur -8.90132 4.7454 30.0416
rtibia 23.3788 -0 0
rfoot -0.0535779 0.0418094 -0.00270931
rtoes -0.817863 0 0
lowerback -4.42548 0.219508 0.993272
upperback -1.51048 0.217608 2.59998
thorax 0.923268 0.112712 2.12658
lowerneck -18.727 -5.16185 -13.3147
upperneck 13.7359 -6.60741 16.8646
head 8.41367 -2.27152 7.15036
lclavicle -3.14018e-14 -4.8901e-14 0
lhumerus -36.1708 -3.09476 86.4049
lradius 27.2833 -0 0
lwrist 7.09356 0 0
lhand -12.7246 -22.8602 0.0275546
lfingers 7.12502 -0 0
lthumb 13.3563 6.65908 0.0152091
rclavicle -3.14018e-14 -4.8901e-14 0
rhumerus -38.959 17.5437 -84.3736
rradius 56.2007 -0 0
rwrist -28.5264 0 0
rhand -33.1363 -26.0089 -0.00514696
rfingers 7.12502 -0 0
rthumb -6.34576 -55.8936 -0.00499952
4
root 7.52634 15.97 -36.2864 7.13681 0.859351 -3.8115
lfemur -40.8999 6.55458 -16.1656
ltibia 43.5712 -0 0
lfoot -13.893 8.28493 -0.00766558
ltoes -11.5009 0 0
rfemur -8.28222 4.75886 30.0088
rtibia 22.9008 -0 0
rfoot -0.0751776 0.0755867 -0.00558018
rtoes -1.31119 0 0
lowerback -4.50227 0.238892 1.0294
upperback -1.50535 0.238526 2.62627
thorax 0.970708 0.123446 2.13679
lowerneck -18.7669 -5.15507 -13.3018
upperneck 13.7662 -6.5941 16.8318
head 8.42673 -2.26561 7.13923
lclavicle -3.14018e-14 -4.8901e-14 0
lhumerus -36.3263 -3.15895 86.496
lradius 27.2088 -0 0
lwrist 6.96734 0 0
lhand -12.3744 -22.7617 0.043624
lfingers 7.12502 -0 0
lthumb 13.6924 6.71609 0.0240799
rclavicle -3.14018e-14 -4.8901e-14 0
rhumerus -39.0721 17.5998 -84.536
rradius 56.2219 -0 0
rwrist -28.5045 0 0
rhand -33.0981 -26.1682 -0.0081931
rfingers 7.12502 -0 0
rthumb -6.30884 -56.0538 -0.00795741
